<svg width="32" height="32" viewBox="0 0 32 32" fill="none" xmlns="http://www.w3.org/2000/svg">
<path fill-rule="evenodd" clip-rule="evenodd" d="M15.9999 4.66663C10.1351 4.66663 5.38086 9.42091 5.38086 15.2856C5.38086 19.556 7.90154 23.2396 11.5405 24.926C14.1157 26.1194 16.9935 26.6032 19.9715 27.1037C20.3179 27.162 20.6657 27.2204 21.0145 27.2802C21.098 27.2945 21.1716 27.3056 21.2356 27.3138C21.3027 27.0848 21.3519 26.7738 21.4073 26.371C21.4129 26.3308 21.4185 26.2893 21.4243 26.247C21.4729 25.89 21.5301 25.4697 21.6195 25.1041C21.7059 24.7506 21.8841 24.148 22.3763 23.7778C22.7765 23.4768 23.1549 23.148 23.5085 22.7944C25.4313 20.8716 26.6188 18.2182 26.6188 15.2856C26.6188 9.42091 21.8645 4.66663 15.9999 4.66663ZM3.38086 15.2856C3.38086 8.31633 9.03058 2.66663 15.9999 2.66663C22.9691 2.66663 28.6188 8.31633 28.6188 15.2856C28.6188 18.77 27.2053 21.9261 24.9228 24.2086C24.5217 24.6097 24.0936 24.984 23.6416 25.3284C23.628 25.3596 23.5976 25.4342 23.5624 25.5788C23.4995 25.8364 23.4567 26.1481 23.4045 26.5286C23.3993 26.5665 23.394 26.605 23.3887 26.6442C23.3343 27.0384 23.2653 27.5209 23.1373 27.9344C23.0264 28.2925 22.7749 28.9366 22.12 29.2168C21.8256 29.3426 21.5121 29.3377 21.3463 29.3305C21.1369 29.3214 20.9061 29.2909 20.6764 29.2514C20.332 29.1924 19.9835 29.134 19.6319 29.0752C16.6919 28.5832 13.5359 28.055 10.6996 26.7406C6.38018 24.7389 3.38086 20.3636 3.38086 15.2856ZM16 11.7865C16.5523 11.7865 17 12.2342 17 12.7865V16.7548C17 17.307 16.5523 17.7548 16 17.7548C15.4477 17.7548 15 17.307 15 16.7548V12.7865C15 12.2342 15.4477 11.7865 16 11.7865ZM12 12.8976C12.5523 12.8976 13 13.3453 13 13.8976V15.6437C13 16.196 12.5523 16.6437 12 16.6437C11.4477 16.6437 11 16.196 11 15.6437V13.8976C11 13.3453 11.4477 12.8976 12 12.8976ZM20 12.8976C20.5523 12.8976 21 13.3453 21 13.8976V15.6437C21 16.196 20.5523 16.6437 20 16.6437C19.4477 16.6437 19 16.196 19 15.6437V13.8976C19 13.3453 19.4477 12.8976 20 12.8976Z" fill="white"/>
</svg>
